NotoSerifYezidi-Bold.ufo
<glyph name="uni060C" format="2">
  <advance width="261"/>
  <unicode hex="060C"/>
  <outline>
    <contour>
      <point x="139" y="-51" type="curve" smooth="yes"/>
      <point x="183" y="-51"/>
      <point x="217" y="-15"/>
      <point x="227" y="39" type="curve"/>
      <point x="189" y="51"/>
      <point x="167" y="62"/>
      <point x="167" y="82" type="curve" smooth="yes"/>
      <point x="167" y="106"/>
      <point x="188" y="151"/>
      <point x="231" y="199" type="curve"/>
      <point x="181" y="239" type="line"/>
      <point x="84" y="150"/>
      <point x="59" y="99"/>
      <point x="59" y="38" type="curve" smooth="yes"/>
      <point x="59" y="-14"/>
      <point x="92" y="-51"/>
    </contour>
  </outline>
</glyph>
<glyph name="uni061B" format="2">
  <advance width="261"/>
  <unicode hex="061B"/>
  <outline>
    <contour>
      <point x="139" y="194" type="curve" smooth="yes"/>
      <point x="182" y="194"/>
      <point x="217" y="228"/>
      <point x="227" y="284" type="curve"/>
      <point x="189" y="295"/>
      <point x="166" y="307"/>
      <point x="166" y="326" type="curve" smooth="yes"/>
      <point x="166" y="351"/>
      <point x="188" y="395"/>
      <point x="231" y="443" type="curve"/>
      <point x="181" y="483" type="line"/>
      <point x="84" y="395"/>
      <point x="59" y="343"/>
      <point x="59" y="283" type="curve" smooth="yes"/>
      <point x="59" y="231"/>
      <point x="92" y="194"/>
    </contour>
    <contour>
      <point x="178" y="-60" type="curve"/>
      <point x="214" y="-8"/>
      <point x="232" y="23"/>
      <point x="232" y="32" type="curve" smooth="yes"/>
      <point x="232" y="47"/>
      <point x="199" y="73"/>
      <point x="134" y="111" type="curve"/>
      <point x="122" y="94"/>
      <point x="112" y="78"/>
      <point x="104" y="61" type="curve" smooth="yes"/>
      <point x="95" y="44"/>
      <point x="85" y="27"/>
      <point x="75" y="9" type="curve"/>
      <point x="109" y="-10"/>
      <point x="143" y="-33"/>
    </contour>
  </outline>
</glyph>
<glyph name="uni061F" format="2">
  <advance width="425"/>
  <unicode hex="061F"/>
  <outline>
    <contour>
      <point x="245" y="129" type="line"/>
      <point x="268" y="177"/>
      <point x="280" y="215"/>
      <point x="280" y="244" type="curve" smooth="yes"/>
      <point x="280" y="278"/>
      <point x="265" y="305"/>
      <point x="241" y="327" type="curve" smooth="yes"/>
      <point x="217" y="350"/>
      <point x="181" y="369"/>
      <point x="97" y="393" type="curve"/>
      <point x="116" y="449"/>
      <point x="160" y="477"/>
      <point x="231" y="477" type="curve" smooth="yes"/>
      <point x="278" y="477"/>
      <point x="304" y="465"/>
      <point x="342" y="428" type="curve"/>
      <point x="365" y="449"/>
      <point x="376" y="473"/>
      <point x="376" y="502" type="curve" smooth="yes"/>
      <point x="376" y="523"/>
      <point x="369" y="541"/>
      <point x="355" y="554" type="curve" smooth="yes"/>
      <point x="328" y="582"/>
      <point x="289" y="597"/>
      <point x="242" y="597" type="curve" smooth="yes"/>
      <point x="210" y="597"/>
      <point x="179" y="587"/>
      <point x="149" y="566" type="curve" smooth="yes"/>
      <point x="88" y="526"/>
      <point x="45" y="452"/>
      <point x="45" y="389" type="curve" smooth="yes"/>
      <point x="45" y="342"/>
      <point x="70" y="304"/>
      <point x="120" y="275" type="curve" smooth="yes"/>
      <point x="148" y="259"/>
      <point x="167" y="246"/>
      <point x="178" y="236" type="curve" smooth="yes"/>
      <point x="188" y="226"/>
      <point x="193" y="215"/>
      <point x="193" y="204" type="curve" smooth="yes"/>
      <point x="193" y="193"/>
      <point x="192" y="180"/>
      <point x="188" y="165" type="curve"/>
    </contour>
    <contour>
      <point x="217" y="-62" type="curve"/>
      <point x="253" y="-10"/>
      <point x="271" y="21"/>
      <point x="271" y="30" type="curve" smooth="yes"/>
      <point x="271" y="36"/>
      <point x="264" y="46"/>
      <point x="249" y="59" type="curve" smooth="yes"/>
      <point x="234" y="72"/>
      <point x="208" y="88"/>
      <point x="173" y="109" type="curve"/>
      <point x="161" y="92"/>
      <point x="151" y="76"/>
      <point x="143" y="59" type="curve" smooth="yes"/>
      <point x="134" y="42"/>
      <point x="124" y="25"/>
      <point x="114" y="7" type="curve"/>
      <point x="148" y="-12"/>
      <point x="182" y="-35"/>
    </contour>
  </outline>
</glyph>
<glyph name="uni06D4" format="2">
  <advance width="290"/>
  <unicode hex="06D4"/>
  <outline>
    <contour>
      <point x="44" y="9" type="curve" smooth="yes"/>
      <point x="245" y="9" type="line" smooth="yes"/>
      <point x="248" y="9"/>
      <point x="250" y="10"/>
      <point x="250" y="13" type="curve" smooth="yes"/>
      <point x="250" y="124" type="line" smooth="yes"/>
      <point x="250" y="126"/>
      <point x="248" y="127"/>
      <point x="245" y="127" type="curve" smooth="yes"/>
      <point x="44" y="127" type="line" smooth="yes"/>
      <point x="42" y="127"/>
      <point x="41" y="126"/>
      <point x="41" y="124" type="curve" smooth="yes"/>
      <point x="41" y="13" type="line" smooth="yes"/>
      <point x="41" y="10"/>
      <point x="42" y="9"/>
    </contour>
  </outline>
</glyph>
<glyph name="elif-yezi" format="2">
  <advance width="229"/>
  <unicode hex="10E80"/>
  <anchor x="54" y="795" name="top"/>
  <anchor x="54" y="792" name="top.madda"/>
  <outline>
    <contour>
      <point x="100" y="0" type="curve"/>
      <point x="148" y="0" type="line"/>
      <point x="153" y="117"/>
      <point x="155" y="222"/>
      <point x="155" y="316" type="curve" smooth="yes"/>
      <point x="155" y="490"/>
      <point x="147" y="635"/>
      <point x="130" y="770" type="curve"/>
      <point x="124" y="770" type="line"/>
      <point x="20" y="694" type="line"/>
      <point x="74" y="491"/>
      <point x="100" y="268"/>
    </contour>
  </outline>
</glyph>
<glyph name="be-yezi" format="2">
  <advance width="512"/>
  <unicode hex="10E81"/>
  <outline>
    <contour>
      <point x="254" y="0" type="curve"/>
      <point x="270" y="0" type="line"/>
      <point x="336" y="156"/>
      <point x="406" y="301"/>
      <point x="490" y="438" type="curve"/>
      <point x="457" y="463" type="line"/>
      <point x="395" y="358"/>
      <point x="343" y="256"/>
      <point x="292" y="153" type="curve"/>
      <point x="324" y="153" type="line"/>
      <point x="265" y="261"/>
      <point x="200" y="366"/>
      <point x="130" y="471" type="curve"/>
      <point x="123" y="471" type="line"/>
      <point x="16" y="342" type="line"/>
      <point x="98" y="238"/>
      <point x="178" y="120"/>
    </contour>
  </outline>
</glyph>
<glyph name="pe-yezi" format="2">
  <advance width="464"/>
  <unicode hex="10E82"/>
  <outline>
    <contour>
      <point x="70" y="-293" type="line"/>
      <point x="335" y="-104" type="line" smooth="yes"/>
      <point x="408" y="-52"/>
      <point x="427" y="-29"/>
      <point x="427" y="6" type="curve" smooth="yes"/>
      <point x="427" y="47"/>
      <point x="401" y="77"/>
      <point x="348" y="100" type="curve" smooth="yes"/>
      <point x="205" y="162" type="line"/>
      <point x="110" y="68" type="line"/>
      <point x="327" y="204" type="line" smooth="yes"/>
      <point x="384" y="240"/>
      <point x="406" y="268"/>
      <point x="406" y="303" type="curve" smooth="yes"/>
      <point x="406" y="347"/>
      <point x="371" y="374"/>
      <point x="266" y="413" type="curve" smooth="yes"/>
      <point x="116" y="469" type="line"/>
      <point x="110" y="469" type="line"/>
      <point x="25" y="353" type="line"/>
      <point x="25" y="347" type="line"/>
      <point x="208" y="277" type="line" smooth="yes"/>
      <point x="246" y="263"/>
      <point x="256" y="254"/>
      <point x="256" y="235" type="curve" smooth="yes"/>
      <point x="256" y="216"/>
      <point x="246" y="203"/>
      <point x="205" y="175" type="curve" smooth="yes"/>
      <point x="71" y="82" type="line"/>
      <point x="71" y="59" type="line"/>
      <point x="223" y="-6" type="line" smooth="yes"/>
      <point x="261" y="-22"/>
      <point x="275" y="-36"/>
      <point x="275" y="-60" type="curve" smooth="yes"/>
      <point x="275" y="-82"/>
      <point x="263" y="-99"/>
      <point x="226" y="-128" type="curve" smooth="yes"/>
      <point x="45" y="-263" type="line"/>
    </contour>
  </outline>
</glyph>
<glyph name="phe-yezi" format="2">
  <advance width="494"/>
  <unicode hex="10E83"/>
  <outline>
    <contour>
      <point x="361" y="-210" type="curve"/>
      <point x="481" y="-137" type="line"/>
      <point x="484" y="-131" type="line"/>
      <point x="418" y="-33"/>
      <point x="363" y="60"/>
      <point x="315" y="156" type="curve" smooth="yes"/>
      <point x="270" y="246"/>
      <point x="231" y="322"/>
      <point x="143" y="464" type="curve"/>
      <point x="23" y="391" type="line"/>
      <point x="20" y="385" type="line"/>
      <point x="86" y="287"/>
      <point x="141" y="194"/>
      <point x="189" y="98" type="curve" smooth="yes"/>
      <point x="234" y="8"/>
      <point x="273" y="-68"/>
    </contour>
  </outline>
</glyph>
<glyph name="the-yezi" format="2">
  <advance width="519"/>
  <unicode hex="10E84"/>
  <outline>
    <contour>
      <point x="14" y="0" type="line"/>
      <point x="452" y="0" type="line"/>
      <point x="505" y="141" type="line"/>
      <point x="505" y="147" type="line"/>
      <point x="67" y="147" type="line"/>
      <point x="14" y="6" type="line"/>
    </contour>
    <contour>
      <point x="252" y="100" type="curve"/>
      <point x="306" y="100" type="line"/>
      <point x="311" y="166"/>
      <point x="313" y="215"/>
      <point x="313" y="267" type="curve" smooth="yes"/>
      <point x="312" y="338"/>
      <point x="307" y="405"/>
      <point x="298" y="463" type="curve"/>
      <point x="292" y="463" type="line"/>
      <point x="211" y="409" type="line"/>
      <point x="239" y="306"/>
      <point x="252" y="208"/>
    </contour>
  </outline>
</glyph>
<glyph name="se-yezi" format="2">
  <advance width="497"/>
  <unicode hex="10E85"/>
  <outline>
    <contour>
      <point x="287" y="0" type="curve"/>
      <point x="323" y="0" type="line"/>
      <point x="270" y="164"/>
      <point x="191" y="315"/>
      <point x="109" y="397" type="curve"/>
      <point x="120" y="316" type="line"/>
      <point x="448" y="316" type="line"/>
      <point x="501" y="457" type="line"/>
      <point x="501" y="463" type="line"/>
      <point x="73" y="463" type="line"/>
      <point x="20" y="322" type="line"/>
      <point x="20" y="316" type="line"/>
      <point x="118" y="247"/>
      <point x="217" y="140"/>
    </contour>
  </outline>
</glyph>
<glyph name="cim-yezi" format="2">
  <advance width="542"/>
  <unicode hex="10E86"/>
  <guideline x="215" y="315" angle="124.769"/>
  <outline>
    <contour>
      <point x="-5" y="0" type="line"/>
      <point x="459" y="0" type="line"/>
      <point x="510" y="133" type="line"/>
      <point x="419" y="229"/>
      <point x="338" y="339"/>
      <point x="261" y="463" type="curve"/>
      <point x="245" y="463" type="line"/>
      <point x="178" y="313"/>
      <point x="91" y="162"/>
      <point x="-5" y="12" type="curve"/>
    </contour>
    <contour>
      <point x="393" y="73" type="curve"/>
      <point x="402" y="120" type="line"/>
      <point x="74" y="120" type="line"/>
      <point x="84" y="75" type="line"/>
      <point x="135" y="158"/>
      <point x="185" y="246"/>
      <point x="220" y="312" type="curve"/>
      <point x="206" y="312" type="line"/>
      <point x="266" y="224"/>
      <point x="329" y="144"/>
    </contour>
  </outline>
</glyph>
<glyph name="chim-yezi" format="2">
  <advance width="652"/>
  <unicode hex="10E87"/>
  <outline>
    <contour>
      <point x="-5" y="0" type="line"/>
      <point x="459" y="0" type="line"/>
      <point x="640" y="407" type="line"/>
      <point x="602" y="425" type="line"/>
      <point x="456" y="99" type="line"/>
      <point x="513" y="129" type="line"/>
      <point x="422" y="226"/>
      <point x="339" y="337"/>
      <point x="261" y="463" type="curve"/>
      <point x="245" y="463" type="line"/>
      <point x="178" y="313"/>
      <point x="91" y="162"/>
      <point x="-5" y="12" type="curve"/>
    </contour>
    <contour>
      <point x="85" y="78" type="line"/>
      <point x="143" y="169"/>
      <point x="196" y="265"/>
      <point x="231" y="334" type="curve"/>
      <point x="191" y="334" type="line"/>
      <point x="252" y="244"/>
      <point x="315" y="160"/>
      <point x="380" y="88" type="curve"/>
      <point x="380" y="120" type="line"/>
      <point x="85" y="120" type="line"/>
    </contour>
  </outline>
</glyph>
<glyph name="hha-yezi" format="2">
  <advance width="542"/>
  <unicode hex="10E89"/>
  <outline>
    <contour>
      <point x="281" y="0" type="curve"/>
      <point x="297" y="0" type="line"/>
      <point x="364" y="150"/>
      <point x="451" y="301"/>
      <point x="547" y="451" type="curve"/>
      <point x="547" y="463" type="line"/>
      <point x="83" y="463" type="line"/>
      <point x="32" y="330" type="line"/>
      <point x="123" y="234"/>
      <point x="204" y="124"/>
    </contour>
    <contour>
      <point x="322" y="151" type="curve"/>
      <point x="336" y="151" type="line"/>
      <point x="276" y="239"/>
      <point x="213" y="319"/>
      <point x="149" y="390" type="curve"/>
      <point x="140" y="343" type="line"/>
      <point x="468" y="343" type="line"/>
      <point x="458" y="388" type="line"/>
      <point x="407" y="305"/>
      <point x="357" y="217"/>
    </contour>
  </outline>
</glyph>
<glyph name="xa-yezi" format="2">
  <advance width="592"/>
  <unicode hex="10E8A"/>
  <outline>
    <contour>
      <point x="25" y="0" type="line"/>
      <point x="489" y="0" type="line"/>
      <point x="540" y="133" type="line"/>
      <point x="462" y="215"/>
      <point x="392" y="307"/>
      <point x="325" y="410" type="curve"/>
      <point x="250" y="410" type="line"/>
      <point x="187" y="277"/>
      <point x="110" y="144"/>
      <point x="25" y="12" type="curve"/>
    </contour>
    <contour>
      <point x="423" y="73" type="curve"/>
      <point x="432" y="120" type="line"/>
      <point x="104" y="120" type="line"/>
      <point x="114" y="75" type="line"/>
      <point x="165" y="158"/>
      <point x="215" y="246"/>
      <point x="250" y="312" type="curve"/>
      <point x="236" y="312" type="line"/>
      <point x="296" y="224"/>
      <point x="359" y="144"/>
    </contour>
    <contour>
      <point x="15" y="357" type="line"/>
      <point x="504" y="357" type="line"/>
      <point x="540" y="457" type="line"/>
      <point x="540" y="463" type="line"/>
      <point x="52" y="463" type="line"/>
      <point x="15" y="363" type="line"/>
    </contour>
  </outline>
</glyph>
<glyph name="dal-yezi" format="2">
  <advance width="520"/>
  <unicode hex="10E8B"/>
  <outline>
    <contour>
      <point x="50" y="0" type="line"/>
      <point x="422" y="0" type="line"/>
      <point x="476" y="136" type="line"/>
      <point x="476" y="142" type="line"/>
      <point x="464" y="199"/>
      <point x="456" y="249"/>
      <point x="456" y="303" type="curve" smooth="yes"/>
      <point x="456" y="349"/>
      <point x="460" y="398"/>
      <point x="470" y="457" type="curve"/>
      <point x="470" y="463" type="line"/>
      <point x="98" y="463" type="line"/>
      <point x="44" y="327" type="line"/>
      <point x="44" y="321" type="line"/>
      <point x="56" y="264"/>
      <point x="64" y="214"/>
      <point x="64" y="160" type="curve" smooth="yes"/>
      <point x="64" y="114"/>
      <point x="60" y="65"/>
      <point x="50" y="6" type="curve"/>
    </contour>
    <contour>
      <point x="406" y="91" type="curve"/>
      <point x="453" y="138" type="line"/>
      <point x="94" y="138" type="line"/>
      <point x="95" y="111" type="line"/>
      <point x="107" y="180"/>
      <point x="118" y="244"/>
      <point x="118" y="309" type="curve" smooth="yes"/>
      <point x="118" y="330"/>
      <point x="117" y="351"/>
      <point x="114" y="372" type="curve"/>
      <point x="67" y="325" type="line"/>
      <point x="426" y="325" type="line"/>
      <point x="425" y="352" type="line"/>
      <point x="413" y="283"/>
      <point x="402" y="219"/>
      <point x="402" y="154" type="curve" smooth="yes"/>
      <point x="402" y="133"/>
      <point x="403" y="112"/>
    </contour>
  </outline>
</glyph>
<glyph name="zal-yezi" format="2">
  <advance width="525"/>
  <unicode hex="10E8C"/>
  <outline>
    <contour>
      <point x="60" y="-293" type="line"/>
      <point x="65" y="-293" type="line"/>
      <point x="145" y="-249" type="line"/>
      <point x="107" y="380" type="line"/>
      <point x="86" y="325" type="line"/>
      <point x="431" y="325" type="line"/>
      <point x="430" y="352" type="line"/>
      <point x="418" y="283"/>
      <point x="407" y="219"/>
      <point x="407" y="154" type="curve" smooth="yes"/>
      <point x="407" y="133"/>
      <point x="408" y="112"/>
      <point x="411" y="91" type="curve"/>
      <point x="458" y="138" type="line"/>
      <point x="88" y="138" type="line"/>
      <point x="88" y="0" type="line"/>
      <point x="427" y="0" type="line"/>
      <point x="481" y="136" type="line"/>
      <point x="481" y="142" type="line"/>
      <point x="469" y="199"/>
      <point x="461" y="249"/>
      <point x="461" y="303" type="curve" smooth="yes"/>
      <point x="461" y="349"/>
      <point x="465" y="398"/>
      <point x="475" y="457" type="curve"/>
      <point x="475" y="463" type="line"/>
      <point x="102" y="463" type="line"/>
      <point x="84" y="438"/>
      <point x="56" y="387"/>
      <point x="56" y="315" type="curve" smooth="yes"/>
    </contour>
  </outline>
</glyph>
<glyph name="ra-yezi" format="2">
  <advance width="654"/>
  <unicode hex="10E8D"/>
  <guideline x="41" y="427" angle="249.3994"/>
  <outline>
    <contour>
      <point x="555" y="-5" type="curve" smooth="yes"/>
      <point x="589" y="-5"/>
      <point x="611" y="10"/>
      <point x="622" y="43" type="curve"/>
      <point x="578" y="69"/>
      <point x="559" y="127"/>
      <point x="559" y="215" type="curve" smooth="yes"/>
      <point x="559" y="286"/>
      <point x="571" y="370"/>
      <point x="599" y="457" type="curve"/>
      <point x="599" y="463" type="line"/>
      <point x="97" y="463" type="line"/>
      <point x="46" y="329" type="line"/>
      <point x="69" y="261"/>
      <point x="79" y="198"/>
      <point x="79" y="131" type="curve" smooth="yes"/>
      <point x="79" y="81"/>
      <point x="73" y="42"/>
      <point x="62" y="0" type="curve"/>
      <point x="104" y="0" type="line"/>
      <point x="125" y="78"/>
      <point x="148" y="180"/>
      <point x="148" y="295" type="curve" smooth="yes"/>
      <point x="148" y="343"/>
      <point x="138" y="369"/>
      <point x="130" y="411" type="curve"/>
      <point x="53" y="317" type="line"/>
      <point x="556" y="317" type="line"/>
      <point x="532" y="340" type="line"/>
      <point x="506" y="275"/>
      <point x="477" y="166"/>
      <point x="477" y="102" type="curve" smooth="yes"/>
      <point x="477" y="22"/>
      <point x="509" y="-5"/>
    </contour>
  </outline>
</glyph>
<glyph name="rha-yezi" format="2">
  <advance width="654"/>
  <unicode hex="10E8E"/>
  <outline>
    <contour>
      <point x="555" y="-5" type="curve" smooth="yes"/>
      <point x="589" y="-5"/>
      <point x="611" y="10"/>
      <point x="622" y="43" type="curve"/>
      <point x="578" y="69"/>
      <point x="559" y="127"/>
      <point x="559" y="215" type="curve" smooth="yes"/>
      <point x="559" y="286"/>
      <point x="571" y="370"/>
      <point x="599" y="457" type="curve"/>
      <point x="599" y="463" type="line"/>
      <point x="97" y="463" type="line"/>
      <point x="46" y="329" type="line"/>
      <point x="69" y="261"/>
      <point x="79" y="198"/>
      <point x="79" y="131" type="curve" smooth="yes"/>
      <point x="79" y="81"/>
      <point x="73" y="42"/>
      <point x="62" y="0" type="curve"/>
      <point x="104" y="0" type="line"/>
      <point x="125" y="78"/>
      <point x="148" y="180"/>
      <point x="148" y="295" type="curve" smooth="yes"/>
      <point x="148" y="343"/>
      <point x="138" y="369"/>
      <point x="130" y="411" type="curve"/>
      <point x="53" y="317" type="line"/>
      <point x="556" y="317" type="line"/>
      <point x="532" y="340" type="line"/>
      <point x="506" y="275"/>
      <point x="477" y="166"/>
      <point x="477" y="102" type="curve" smooth="yes"/>
      <point x="477" y="22"/>
      <point x="509" y="-5"/>
    </contour>
    <contour>
      <point x="97" y="533" type="line"/>
      <point x="599" y="533" type="line"/>
      <point x="599" y="573" type="line"/>
      <point x="97" y="573" type="line"/>
    </contour>
  </outline>
</glyph>
<glyph name="za-yezi" format="2">
  <advance width="361"/>
  <unicode hex="10E8F"/>
  <outline>
    <contour>
      <point x="246" y="-5" type="curve"/>
      <point x="343" y="106" type="line"/>
      <point x="343" y="112" type="line"/>
      <point x="273" y="173"/>
      <point x="195" y="238"/>
      <point x="128" y="285" type="curve"/>
      <point x="104" y="237" type="line"/>
      <point x="172" y="301"/>
      <point x="240" y="366"/>
      <point x="304" y="432" type="curve"/>
      <point x="277" y="463" type="line"/>
      <point x="195" y="381"/>
      <point x="96" y="285"/>
      <point x="4" y="206" type="curve"/>
      <point x="4" y="201" type="line"/>
      <point x="87" y="136"/>
      <point x="172" y="63"/>
    </contour>
  </outline>
</glyph>
<glyph name="ja-yezi" format="2">
  <advance width="702"/>
  <unicode hex="10E90"/>
  <guideline x="-383" y="43" angle="35.6229"/>
  <outline>
    <contour>
      <point x="600" y="-8" type="curve"/>
      <point x="605" y="-8" type="line"/>
      <point x="686" y="108" type="line"/>
      <point x="578" y="216"/>
      <point x="472" y="338"/>
      <point x="372" y="463" type="curve"/>
      <point x="356" y="463" type="line"/>
      <point x="267" y="308"/>
      <point x="164" y="164"/>
      <point x="58" y="28" type="curve"/>
      <point x="84" y="0" type="line"/>
      <point x="176" y="114"/>
      <point x="253" y="225"/>
      <point x="327" y="337" type="curve"/>
      <point x="317" y="337" type="line"/>
      <point x="403" y="220"/>
      <point x="498" y="106"/>
    </contour>
    <contour>
      <point x="330" y="0" type="curve"/>
      <point x="346" y="0" type="line"/>
      <point x="435" y="155"/>
      <point x="538" y="299"/>
      <point x="644" y="435" type="curve"/>
      <point x="618" y="463" type="line"/>
      <point x="526" y="349"/>
      <point x="449" y="238"/>
      <point x="375" y="126" type="curve"/>
      <point x="385" y="126" type="line"/>
      <point x="299" y="243"/>
      <point x="204" y="357"/>
      <point x="102" y="471" type="curve"/>
      <point x="97" y="471" type="line"/>
      <point x="16" y="355" type="line"/>
      <point x="124" y="247"/>
      <point x="229" y="125"/>
    </contour>
  </outline>
</glyph>
<glyph name="sin-yezi" format="2">
  <advance width="780"/>
  <unicode hex="10E91"/>
  <outline>
    <contour>
      <point x="55" y="-5" type="line"/>
      <point x="683" y="-5" type="line"/>
      <point x="734" y="129" type="line"/>
      <point x="711" y="197"/>
      <point x="701" y="260"/>
      <point x="701" y="327" type="curve" smooth="yes"/>
      <point x="701" y="377"/>
      <point x="707" y="416"/>
      <point x="718" y="458" type="curve"/>
      <point x="676" y="458" type="line"/>
      <point x="655" y="380"/>
      <point x="632" y="278"/>
      <point x="632" y="163" type="curve" smooth="yes"/>
      <point x="632" y="115"/>
      <point x="642" y="89"/>
      <point x="650" y="47" type="curve"/>
      <point x="727" y="141" type="line"/>
      <point x="98" y="141" type="line"/>
      <point x="122" y="118" type="line"/>
      <point x="148" y="183"/>
      <point x="177" y="292"/>
      <point x="177" y="356" type="curve" smooth="yes"/>
      <point x="177" y="436"/>
      <point x="145" y="463"/>
      <point x="99" y="463" type="curve" smooth="yes"/>
      <point x="65" y="463"/>
      <point x="43" y="448"/>
      <point x="32" y="415" type="curve"/>
      <point x="76" y="389"/>
      <point x="95" y="331"/>
      <point x="95" y="243" type="curve" smooth="yes"/>
      <point x="95" y="172"/>
      <point x="83" y="88"/>
      <point x="55" y="1" type="curve"/>
    </contour>
    <contour>
      <point x="328" y="1" type="curve"/>
      <point x="395" y="118" type="line"/>
      <point x="421" y="183"/>
      <point x="450" y="292"/>
      <point x="450" y="356" type="curve" smooth="yes"/>
      <point x="450" y="436"/>
      <point x="418" y="463"/>
      <point x="372" y="463" type="curve" smooth="yes"/>
      <point x="338" y="463"/>
      <point x="316" y="448"/>
      <point x="305" y="415" type="curve"/>
      <point x="349" y="389"/>
      <point x="368" y="331"/>
      <point x="368" y="243" type="curve" smooth="yes"/>
      <point x="368" y="172"/>
      <point x="356" y="88"/>
    </contour>
  </outline>
</glyph>
<glyph name="shin-yezi" format="2">
  <advance width="780"/>
  <unicode hex="10E92"/>
  <outline>
    <contour>
      <point x="681" y="-5" type="curve" smooth="yes"/>
      <point x="715" y="-5"/>
      <point x="737" y="10"/>
      <point x="748" y="43" type="curve"/>
      <point x="704" y="69"/>
      <point x="685" y="127"/>
      <point x="685" y="215" type="curve" smooth="yes"/>
      <point x="685" y="286"/>
      <point x="697" y="370"/>
      <point x="725" y="457" type="curve"/>
      <point x="725" y="463" type="line"/>
      <point x="97" y="463" type="line"/>
      <point x="46" y="329" type="line"/>
      <point x="69" y="261"/>
      <point x="79" y="198"/>
      <point x="79" y="131" type="curve" smooth="yes"/>
      <point x="79" y="81"/>
      <point x="73" y="42"/>
      <point x="62" y="0" type="curve"/>
      <point x="104" y="0" type="line"/>
      <point x="125" y="78"/>
      <point x="148" y="180"/>
      <point x="148" y="295" type="curve" smooth="yes"/>
      <point x="148" y="343"/>
      <point x="138" y="369"/>
      <point x="130" y="411" type="curve"/>
      <point x="53" y="317" type="line"/>
      <point x="682" y="317" type="line"/>
      <point x="658" y="340" type="line"/>
      <point x="632" y="275"/>
      <point x="603" y="166"/>
      <point x="603" y="102" type="curve" smooth="yes"/>
      <point x="603" y="22"/>
      <point x="635" y="-5"/>
    </contour>
    <contour>
      <point x="408" y="-5" type="curve" smooth="yes"/>
      <point x="442" y="-5"/>
      <point x="464" y="10"/>
      <point x="475" y="43" type="curve"/>
      <point x="431" y="69"/>
      <point x="412" y="127"/>
      <point x="412" y="215" type="curve" smooth="yes"/>
      <point x="412" y="286"/>
      <point x="424" y="370"/>
      <point x="452" y="457" type="curve"/>
      <point x="385" y="340" type="line"/>
      <point x="359" y="275"/>
      <point x="330" y="166"/>
      <point x="330" y="102" type="curve" smooth="yes"/>
      <point x="330" y="22"/>
      <point x="362" y="-5"/>
    </contour>
  </outline>
</glyph>
<glyph name="sad-yezi" format="2">
  <advance width="539"/>
  <unicode hex="10E93"/>
  <outline>
    <contour>
      <point x="24" y="158" type="line"/>
      <point x="462" y="158" type="line"/>
      <point x="515" y="299" type="line"/>
      <point x="515" y="305" type="line"/>
      <point x="77" y="305" type="line"/>
      <point x="24" y="164" type="line"/>
    </contour>
    <contour>
      <point x="243" y="0" type="curve"/>
      <point x="303" y="0" type="line"/>
      <point x="307" y="77"/>
      <point x="310" y="154"/>
      <point x="310" y="231" type="curve" smooth="yes"/>
      <point x="310" y="309"/>
      <point x="307" y="386"/>
      <point x="301" y="463" type="curve"/>
      <point x="295" y="463" type="line"/>
      <point x="218" y="409" type="line"/>
      <point x="239" y="267"/>
      <point x="243" y="132"/>
    </contour>
  </outline>
</glyph>
<glyph name="dad-yezi" format="2">
  <advance width="493"/>
  <unicode hex="10E94"/>
  <outline>
    <contour>
      <point x="380" y="0" type="line"/>
      <point x="483" y="119" type="line"/>
      <point x="483" y="124" type="line"/>
      <point x="112" y="463" type="line"/>
      <point x="10" y="345" type="line"/>
      <point x="10" y="339" type="line"/>
    </contour>
    <contour>
      <point x="73" y="0" type="line"/>
      <point x="450" y="432" type="line"/>
      <point x="450" y="438" type="line"/>
      <point x="421" y="463" type="line"/>
      <point x="43" y="31" type="line"/>
      <point x="43" y="26" type="line"/>
    </contour>
  </outline>
</glyph>
<glyph name="ta-yezi" format="2">
  <advance width="388"/>
  <unicode hex="10E95"/>
  <outline>
    <contour>
      <point x="267" y="-293" type="line"/>
      <point x="272" y="-293" type="line"/>
      <point x="350" y="-242" type="line"/>
      <point x="316" y="288" type="line" smooth="yes"/>
      <point x="310" y="388"/>
      <point x="269" y="463"/>
      <point x="142" y="463" type="curve" smooth="yes"/>
      <point x="54" y="463" type="line"/>
      <point x="2" y="331" type="line"/>
      <point x="2" y="325" type="line"/>
      <point x="121" y="325" type="line" smooth="yes"/>
      <point x="218" y="325"/>
      <point x="257" y="286"/>
      <point x="259" y="184" type="curve" smooth="yes"/>
    </contour>
  </outline>
</glyph>
<glyph name="ze-yezi" format="2">
  <advance width="577"/>
  <unicode hex="10E96"/>
  <outline>
    <contour>
      <point x="18" y="158" type="line"/>
      <point x="506" y="158" type="line"/>
      <point x="559" y="299" type="line"/>
      <point x="559" y="305" type="line"/>
      <point x="71" y="305" type="line"/>
      <point x="18" y="164" type="line"/>
    </contour>
    <contour>
      <point x="174" y="0" type="curve"/>
      <point x="225" y="0" type="line"/>
      <point x="229" y="65"/>
      <point x="231" y="131"/>
      <point x="231" y="196" type="curve" smooth="yes"/>
      <point x="231" y="285"/>
      <point x="227" y="374"/>
      <point x="220" y="463" type="curve"/>
      <point x="214" y="463" type="line"/>
      <point x="149" y="416" type="line"/>
      <point x="170" y="272"/>
      <point x="174" y="134"/>
    </contour>
    <contour>
      <point x="354" y="0" type="curve"/>
      <point x="405" y="0" type="line"/>
      <point x="409" y="65"/>
      <point x="411" y="131"/>
      <point x="411" y="196" type="curve" smooth="yes"/>
      <point x="411" y="285"/>
      <point x="407" y="374"/>
      <point x="400" y="463" type="curve"/>
      <point x="394" y="463" type="line"/>
      <point x="329" y="416" type="line"/>
      <point x="350" y="272"/>
      <point x="354" y="134"/>
    </contour>
  </outline>
</glyph>
<glyph name="eyn-yezi" format="2">
  <advance width="519"/>
  <unicode hex="10E97"/>
  <outline>
    <contour>
      <point x="14" y="0" type="line"/>
      <point x="403" y="0" type="line"/>
      <point x="428" y="40"/>
      <point x="445" y="82"/>
      <point x="445" y="171" type="curve" smooth="yes"/>
      <point x="445" y="248"/>
      <point x="439" y="356"/>
      <point x="425" y="463" type="curve"/>
      <point x="419" y="463" type="line"/>
      <point x="338" y="410" type="line"/>
      <point x="367" y="298"/>
      <point x="385" y="199"/>
      <point x="385" y="89" type="curve"/>
      <point x="413" y="147" type="line"/>
      <point x="67" y="147" type="line"/>
      <point x="14" y="6" type="line"/>
    </contour>
  </outline>
</glyph>
<glyph name="xheyn-yezi" format="2">
  <advance width="573"/>
  <unicode hex="10E98"/>
  <outline>
    <contour>
      <point x="18" y="269" type="line"/>
      <point x="513" y="269" type="line"/>
      <point x="555" y="380" type="line"/>
      <point x="555" y="386" type="line"/>
      <point x="60" y="386" type="line"/>
      <point x="18" y="275" type="line"/>
    </contour>
    <contour>
      <point x="174" y="0" type="curve"/>
      <point x="225" y="0" type="line"/>
      <point x="229" y="65"/>
      <point x="231" y="131"/>
      <point x="231" y="196" type="curve" smooth="yes"/>
      <point x="231" y="285"/>
      <point x="227" y="374"/>
      <point x="220" y="463" type="curve"/>
      <point x="214" y="463" type="line"/>
      <point x="149" y="416" type="line"/>
      <point x="170" y="272"/>
      <point x="174" y="134"/>
    </contour>
    <contour>
      <point x="18" y="77" type="line"/>
      <point x="513" y="77" type="line"/>
      <point x="555" y="188" type="line"/>
      <point x="555" y="194" type="line"/>
      <point x="60" y="194" type="line"/>
      <point x="18" y="83" type="line"/>
    </contour>
    <contour>
      <point x="354" y="0" type="curve"/>
      <point x="405" y="0" type="line"/>
      <point x="409" y="65"/>
      <point x="411" y="131"/>
      <point x="411" y="196" type="curve" smooth="yes"/>
      <point x="411" y="285"/>
      <point x="407" y="374"/>
      <point x="400" y="463" type="curve"/>
      <point x="394" y="463" type="line"/>
      <point x="329" y="416" type="line"/>
      <point x="350" y="272"/>
      <point x="354" y="134"/>
    </contour>
  </outline>
</glyph>
<glyph name="fa-yezi" format="2">
  <advance width="463"/>
  <unicode hex="10E99"/>
  <outline>
    <contour>
      <point x="45" y="0" type="line"/>
      <point x="396" y="0" type="line"/>
      <point x="449" y="141" type="line"/>
      <point x="449" y="147" type="line"/>
      <point x="61" y="147" type="line"/>
      <point x="96" y="79" type="line"/>
      <point x="104" y="164"/>
      <point x="108" y="249"/>
      <point x="109" y="334" type="curve" smooth="yes"/>
      <point x="109" y="377"/>
      <point x="109" y="420"/>
      <point x="107" y="463" type="curve"/>
      <point x="101" y="463" type="line"/>
      <point x="20" y="410" type="line"/>
      <point x="41" y="277"/>
      <point x="45" y="149"/>
      <point x="45" y="16" type="curve" smooth="yes"/>
    </contour>
  </outline>
</glyph>
<glyph name="va-yezi" format="2">
  <advance width="361"/>
  <unicode hex="10E9A"/>
  <outline>
    <contour>
      <point x="84" y="-5" type="line"/>
      <point x="166" y="77"/>
      <point x="265" y="173"/>
      <point x="357" y="252" type="curve"/>
      <point x="357" y="257" type="line"/>
      <point x="274" y="322"/>
      <point x="189" y="395"/>
      <point x="115" y="463" type="curve"/>
      <point x="18" y="352" type="line"/>
      <point x="18" y="346" type="line"/>
      <point x="88" y="285"/>
      <point x="166" y="220"/>
      <point x="233" y="173" type="curve"/>
      <point x="257" y="221" type="line"/>
      <point x="189" y="157"/>
      <point x="121" y="92"/>
      <point x="57" y="26" type="curve"/>
    </contour>
    <contour>
      <point x="276" y="-6" type="curve" smooth="yes"/>
      <point x="309" y="-6"/>
      <point x="331" y="13"/>
      <point x="331" y="54" type="curve" smooth="yes"/>
      <point x="331" y="95"/>
      <point x="309" y="114"/>
      <point x="276" y="114" type="curve" smooth="yes"/>
      <point x="243" y="114"/>
      <point x="221" y="95"/>
      <point x="221" y="54" type="curve" smooth="yes"/>
      <point x="221" y="13"/>
      <point x="243" y="-6"/>
    </contour>
  </outline>
</glyph>
<glyph name="va-yezi.alt" format="2">
  <advance width="494"/>
  <unicode hex="10E9B"/>
  <guideline x="420" y="-210" angle="0"/>
  <outline>
    <contour>
      <point x="142" y="-210" type="line"/>
      <point x="454" y="440" type="line"/>
      <point x="452" y="446" type="line"/>
      <point x="413" y="463" type="line"/>
      <point x="101" y="-187" type="line"/>
      <point x="102" y="-192" type="line"/>
    </contour>
    <contour>
      <point x="61" y="-114" type="line"/>
      <point x="323" y="433" type="line"/>
      <point x="320" y="439" type="line"/>
      <point x="281" y="456" type="line"/>
      <point x="20" y="-91" type="line"/>
      <point x="21" y="-96" type="line"/>
    </contour>
  </outline>
</glyph>
<glyph name="qaf-yezi" format="2">
  <advance width="503"/>
  <unicode hex="10E9C"/>
  <outline>
    <contour>
      <point x="6" y="0" type="line"/>
      <point x="444" y="0" type="line"/>
      <point x="497" y="141" type="line"/>
      <point x="497" y="147" type="line"/>
      <point x="59" y="147" type="line"/>
      <point x="6" y="6" type="line"/>
    </contour>
    <contour>
      <point x="218" y="-293" type="curve"/>
      <point x="258" y="-293" type="line"/>
      <point x="266" y="-221"/>
      <point x="272" y="-148"/>
      <point x="272" y="-75" type="curve" smooth="yes"/>
      <point x="272" y="-18"/>
      <point x="269" y="40"/>
      <point x="263" y="97" type="curve"/>
      <point x="257" y="97" type="line"/>
      <point x="189" y="31" type="line"/>
      <point x="210" y="-66"/>
      <point x="218" y="-157"/>
      <point x="219" y="-247" type="curve" smooth="yes"/>
      <point x="219" y="-262"/>
      <point x="219" y="-271"/>
    </contour>
  </outline>
</glyph>
<glyph name="kaf-yezi" format="2">
  <advance width="462"/>
  <unicode hex="10E9D"/>
  <outline>
    <contour>
      <point x="342" y="-293" type="line"/>
      <point x="348" y="-293" type="line"/>
      <point x="437" y="-181" type="line"/>
      <point x="223" y="-23" type="line" smooth="yes"/>
      <point x="193" y="-1"/>
      <point x="182" y="15"/>
      <point x="182" y="34" type="curve" smooth="yes"/>
      <point x="182" y="54"/>
      <point x="194" y="67"/>
      <point x="229" y="83" type="curve" smooth="yes"/>
      <point x="384" y="154" type="line"/>
      <point x="384" y="177" type="line"/>
      <point x="250" y="266" type="line" smooth="yes"/>
      <point x="198" y="301"/>
      <point x="186" y="312"/>
      <point x="186" y="330" type="curve" smooth="yes"/>
      <point x="186" y="350"/>
      <point x="200" y="362"/>
      <point x="245" y="377" type="curve" smooth="yes"/>
      <point x="402" y="431" type="line"/>
      <point x="391" y="469" type="line"/>
      <point x="385" y="469" type="line"/>
      <point x="170" y="400" type="line" smooth="yes"/>
      <point x="88" y="374"/>
      <point x="53" y="342"/>
      <point x="53" y="292" type="curve" smooth="yes"/>
      <point x="53" y="248"/>
      <point x="79" y="207"/>
      <point x="133" y="172" type="curve" smooth="yes"/>
      <point x="240" y="103" type="line"/>
      <point x="283" y="157" type="line"/>
      <point x="118" y="83" type="line" smooth="yes"/>
      <point x="60" y="57"/>
      <point x="37" y="31"/>
      <point x="37" y="-10" type="curve" smooth="yes"/>
      <point x="37" y="-51"/>
      <point x="61" y="-87"/>
      <point x="110" y="-123" type="curve" smooth="yes"/>
    </contour>
  </outline>
</glyph>
<glyph name="gaf-yezi" format="2">
  <advance width="541"/>
  <unicode hex="10E9F"/>
  <outline>
    <contour>
      <point x="438" y="0" type="line"/>
      <point x="531" y="127" type="line"/>
      <point x="531" y="132" type="line"/>
      <point x="102" y="463" type="line"/>
      <point x="10" y="337" type="line"/>
      <point x="10" y="331" type="line"/>
    </contour>
    <contour>
      <point x="64" y="70" type="line"/>
      <point x="380" y="432" type="line"/>
      <point x="380" y="438" type="line"/>
      <point x="351" y="463" type="line"/>
      <point x="34" y="101" type="line"/>
      <point x="34" y="96" type="line"/>
    </contour>
    <contour>
      <point x="183" y="0" type="line"/>
      <point x="514" y="378" type="line"/>
      <point x="514" y="384" type="line"/>
      <point x="485" y="409" type="line"/>
      <point x="153" y="31" type="line"/>
      <point x="153" y="26" type="line"/>
    </contour>
  </outline>
</glyph>
<glyph name="lam-yezi" format="2">
  <advance width="382"/>
  <unicode hex="10EA0"/>
  <outline>
    <contour>
      <point x="2" y="0" type="line"/>
      <point x="142" y="0" type="line" smooth="yes"/>
      <point x="280" y="0"/>
      <point x="324" y="88"/>
      <point x="324" y="215" type="curve" smooth="yes"/>
      <point x="324" y="370"/>
      <point x="321" y="575"/>
      <point x="299" y="770" type="curve"/>
      <point x="294" y="770" type="line"/>
      <point x="216" y="715" type="line"/>
      <point x="244" y="564"/>
      <point x="260" y="400"/>
      <point x="260" y="279" type="curve" smooth="yes"/>
      <point x="260" y="177"/>
      <point x="218" y="138"/>
      <point x="121" y="138" type="curve" smooth="yes"/>
      <point x="53" y="138" type="line"/>
      <point x="2" y="6" type="line"/>
    </contour>
  </outline>
</glyph>
<glyph name="mim-yezi" format="2">
  <advance width="388"/>
  <unicode hex="10EA1"/>
  <guideline x="251" y="-73" angle="249.3994"/>
  <outline>
    <contour>
      <point x="246" y="0" type="curve" smooth="yes"/>
      <point x="334" y="0" type="line"/>
      <point x="386" y="132" type="line"/>
      <point x="386" y="138" type="line"/>
      <point x="267" y="138" type="line" smooth="yes"/>
      <point x="170" y="138"/>
      <point x="131" y="177"/>
      <point x="129" y="279" type="curve" smooth="yes"/>
      <point x="121" y="770" type="line"/>
      <point x="116" y="770" type="line"/>
      <point x="38" y="719" type="line"/>
      <point x="72" y="175" type="line" smooth="yes"/>
      <point x="78" y="75"/>
      <point x="119" y="0"/>
    </contour>
  </outline>
</glyph>
<glyph name="nun-yezi" format="2">
  <advance width="654"/>
  <unicode hex="10EA2"/>
  <outline>
    <contour>
      <point x="55" y="0" type="line"/>
      <point x="557" y="0" type="line"/>
      <point x="608" y="134" type="line"/>
      <point x="585" y="202"/>
      <point x="575" y="265"/>
      <point x="575" y="332" type="curve" smooth="yes"/>
      <point x="575" y="382"/>
      <point x="581" y="421"/>
      <point x="592" y="463" type="curve"/>
      <point x="550" y="463" type="line"/>
      <point x="529" y="385"/>
      <point x="506" y="283"/>
      <point x="506" y="168" type="curve" smooth="yes"/>
      <point x="506" y="120"/>
      <point x="516" y="94"/>
      <point x="524" y="52" type="curve"/>
      <point x="601" y="146" type="line"/>
      <point x="98" y="146" type="line"/>
      <point x="122" y="123" type="line"/>
      <point x="148" y="188"/>
      <point x="177" y="297"/>
      <point x="177" y="361" type="curve" smooth="yes"/>
      <point x="177" y="441"/>
      <point x="145" y="468"/>
      <point x="99" y="468" type="curve" smooth="yes"/>
      <point x="65" y="468"/>
      <point x="43" y="453"/>
      <point x="32" y="420" type="curve"/>
      <point x="76" y="394"/>
      <point x="95" y="336"/>
      <point x="95" y="248" type="curve" smooth="yes"/>
      <point x="95" y="177"/>
      <point x="83" y="93"/>
      <point x="55" y="6" type="curve"/>
    </contour>
  </outline>
</glyph>
<glyph name="um-yezi" format="2">
  <advance width="361"/>
  <unicode hex="10EA3"/>
  <anchor x="196" y="495" name="top"/>
  <outline>
    <contour>
      <point x="84" y="-5" type="line"/>
      <point x="166" y="77"/>
      <point x="265" y="173"/>
      <point x="357" y="252" type="curve"/>
      <point x="357" y="257" type="line"/>
      <point x="274" y="322"/>
      <point x="189" y="395"/>
      <point x="115" y="463" type="curve"/>
      <point x="18" y="352" type="line"/>
      <point x="18" y="346" type="line"/>
      <point x="88" y="285"/>
      <point x="166" y="220"/>
      <point x="233" y="173" type="curve"/>
      <point x="257" y="221" type="line"/>
      <point x="189" y="157"/>
      <point x="121" y="92"/>
      <point x="57" y="26" type="curve"/>
    </contour>
  </outline>
</glyph>
<glyph name="waw-yezi" format="2">
  <advance width="397"/>
  <unicode hex="10EA4"/>
  <anchor x="196" y="495" name="top"/>
  <outline>
    <contour>
      <point x="84" y="-5" type="line"/>
      <point x="166" y="77"/>
      <point x="265" y="173"/>
      <point x="357" y="252" type="curve"/>
      <point x="357" y="257" type="line"/>
      <point x="274" y="322"/>
      <point x="189" y="395"/>
      <point x="115" y="463" type="curve"/>
      <point x="18" y="352" type="line"/>
      <point x="18" y="346" type="line"/>
      <point x="88" y="285"/>
      <point x="166" y="220"/>
      <point x="233" y="173" type="curve"/>
      <point x="230" y="195" type="line"/>
      <point x="171" y="140"/>
      <point x="112" y="83"/>
      <point x="57" y="26" type="curve"/>
    </contour>
    <contour>
      <point x="251" y="9" type="line"/>
      <point x="275" y="32"/>
      <point x="299" y="56"/>
      <point x="320" y="78" type="curve"/>
      <point x="288" y="70" type="line"/>
      <point x="306" y="51"/>
      <point x="330" y="28"/>
      <point x="352" y="9" type="curve"/>
      <point x="355" y="9" type="line"/>
      <point x="395" y="53" type="line"/>
      <point x="370" y="73"/>
      <point x="344" y="97"/>
      <point x="321" y="121" type="curve"/>
      <point x="319" y="121" type="line"/>
      <point x="292" y="92"/>
      <point x="258" y="58"/>
      <point x="230" y="31" type="curve"/>
    </contour>
  </outline>
</glyph>
<glyph name="ow-yezi" format="2">
  <advance width="402"/>
  <unicode hex="10EA5"/>
  <anchor x="196" y="495" name="top"/>
  <outline>
    <contour>
      <point x="84" y="-5" type="line"/>
      <point x="166" y="77"/>
      <point x="265" y="173"/>
      <point x="357" y="252" type="curve"/>
      <point x="357" y="257" type="line"/>
      <point x="274" y="322"/>
      <point x="189" y="395"/>
      <point x="115" y="463" type="curve"/>
      <point x="18" y="352" type="line"/>
      <point x="18" y="346" type="line"/>
      <point x="88" y="285"/>
      <point x="166" y="220"/>
      <point x="233" y="173" type="curve"/>
      <point x="257" y="221" type="line"/>
      <point x="189" y="157"/>
      <point x="121" y="92"/>
      <point x="57" y="26" type="curve"/>
    </contour>
    <contour>
      <point x="309" y="386" type="curve"/>
      <point x="311" y="386" type="line"/>
      <point x="338" y="415"/>
      <point x="372" y="449"/>
      <point x="400" y="476" type="curve"/>
      <point x="379" y="498" type="line"/>
      <point x="355" y="475"/>
      <point x="331" y="451"/>
      <point x="310" y="429" type="curve"/>
      <point x="342" y="437" type="line"/>
      <point x="324" y="456"/>
      <point x="300" y="479"/>
      <point x="278" y="498" type="curve"/>
      <point x="275" y="498" type="line"/>
      <point x="235" y="454" type="line"/>
      <point x="260" y="434"/>
      <point x="286" y="410"/>
    </contour>
  </outline>
</glyph>
<glyph name="ew-yezi" format="2">
  <advance width="479"/>
  <unicode hex="10EA6"/>
  <anchor x="256" y="495" name="top"/>
  <outline>
    <contour>
      <point x="213" y="-11" type="curve" smooth="yes"/>
      <point x="353" y="-11"/>
      <point x="449" y="96"/>
      <point x="449" y="225" type="curve" smooth="yes"/>
      <point x="449" y="329"/>
      <point x="398" y="421"/>
      <point x="225" y="476" type="curve"/>
      <point x="176" y="432" type="line" smooth="yes"/>
      <point x="87" y="346"/>
      <point x="36" y="255"/>
      <point x="36" y="148" type="curve" smooth="yes"/>
      <point x="36" y="51"/>
      <point x="99" y="-11"/>
    </contour>
    <contour>
      <point x="296" y="102" type="curve" smooth="yes"/>
      <point x="183" y="102"/>
      <point x="129" y="151"/>
      <point x="129" y="232" type="curve" smooth="yes"/>
      <point x="129" y="289"/>
      <point x="144" y="338"/>
      <point x="211" y="410" type="curve"/>
      <point x="147" y="364" type="line"/>
      <point x="217" y="364"/>
      <point x="379" y="263"/>
      <point x="377" y="102" type="curve"/>
      <point x="409" y="157" type="line"/>
      <point x="382" y="121"/>
      <point x="359" y="102"/>
    </contour>
  </outline>
</glyph>
<glyph name="hay-yezi" format="2">
  <advance width="479"/>
  <unicode hex="10EA7"/>
  <outline>
    <contour>
      <point x="213" y="-11" type="curve" smooth="yes"/>
      <point x="353" y="-11"/>
      <point x="449" y="96"/>
      <point x="449" y="225" type="curve" smooth="yes"/>
      <point x="449" y="345"/>
      <point x="376" y="442"/>
      <point x="113" y="512" type="curve"/>
      <point x="56" y="385" type="line"/>
      <point x="247" y="332"/>
      <point x="377" y="268"/>
      <point x="377" y="102" type="curve"/>
      <point x="409" y="157" type="line"/>
      <point x="382" y="121"/>
      <point x="359" y="102"/>
      <point x="296" y="102" type="curve" smooth="yes"/>
      <point x="183" y="102"/>
      <point x="129" y="151"/>
      <point x="129" y="212" type="curve" smooth="yes"/>
      <point x="129" y="284"/>
      <point x="213" y="359"/>
      <point x="402" y="479" type="curve"/>
      <point x="379" y="514" type="line"/>
      <point x="120" y="345"/>
      <point x="36" y="284"/>
      <point x="36" y="148" type="curve" smooth="yes"/>
      <point x="36" y="51"/>
      <point x="99" y="-11"/>
    </contour>
  </outline>
</glyph>
<glyph name="et-yezi" format="2">
  <advance width="522"/>
  <unicode hex="10EA9"/>
  <anchor x="248" y="605" name="top"/>
  <outline>
    <contour>
      <point x="413" y="-293" type="curve"/>
      <point x="418" y="-293" type="line"/>
      <point x="496" y="-246" type="line"/>
      <point x="478" y="-142"/>
      <point x="468" y="-37"/>
      <point x="468" y="64" type="curve" smooth="yes"/>
      <point x="468" y="298" type="line" smooth="yes"/>
      <point x="468" y="380"/>
      <point x="438" y="463"/>
      <point x="266" y="463" type="curve" smooth="yes"/>
      <point x="98" y="463" type="line"/>
      <point x="44" y="327" type="line"/>
      <point x="44" y="321" type="line"/>
      <point x="56" y="264"/>
      <point x="64" y="214"/>
      <point x="64" y="160" type="curve" smooth="yes"/>
      <point x="64" y="114"/>
      <point x="60" y="65"/>
      <point x="50" y="6" type="curve"/>
      <point x="50" y="0" type="line"/>
      <point x="446" y="0" type="line"/>
      <point x="446" y="138" type="line"/>
      <point x="94" y="138" type="line"/>
      <point x="95" y="111" type="line"/>
      <point x="107" y="180"/>
      <point x="118" y="244"/>
      <point x="118" y="309" type="curve" smooth="yes"/>
      <point x="118" y="330"/>
      <point x="117" y="351"/>
      <point x="114" y="372" type="curve"/>
      <point x="67" y="325" type="line"/>
      <point x="295" y="325" type="line" smooth="yes"/>
      <point x="371" y="325"/>
      <point x="404" y="297"/>
      <point x="404" y="224" type="curve" smooth="yes"/>
      <point x="404" y="-84" type="line" smooth="yes"/>
      <point x="404" y="-154"/>
      <point x="407" y="-223"/>
    </contour>
    <contour>
      <point x="98" y="533" type="line"/>
      <point x="468" y="533" type="line"/>
      <point x="468" y="573" type="line"/>
      <point x="98" y="573" type="line"/>
    </contour>
  </outline>
</glyph>
<glyph name="hamza-yezi" format="2">
  <unicode hex="10EAB"/>
  <anchor x="0" y="516" name="_top"/>
  <outline>
    <contour>
      <point x="-15" y="558" type="line"/>
      <point x="84" y="621"/>
      <point x="112" y="642"/>
      <point x="112" y="672" type="curve" smooth="yes"/>
      <point x="112" y="707"/>
      <point x="84" y="717"/>
      <point x="42" y="724" type="curve" smooth="yes"/>
      <point x="-51" y="740" type="line"/>
      <point x="-34" y="715" type="line"/>
      <point x="-34" y="748"/>
      <point x="20" y="758"/>
      <point x="90" y="766" type="curve"/>
      <point x="117" y="830" type="line"/>
      <point x="28" y="825"/>
      <point x="-101" y="772"/>
      <point x="-101" y="708" type="curve" smooth="yes"/>
      <point x="-101" y="680"/>
      <point x="-85" y="668"/>
      <point x="-53" y="662" type="curve" smooth="yes"/>
      <point x="3" y="652" type="line" smooth="yes"/>
      <point x="16" y="650"/>
      <point x="24" y="645"/>
      <point x="24" y="637" type="curve" smooth="yes"/>
      <point x="24" y="627"/>
      <point x="11" y="614"/>
      <point x="-32" y="583" type="curve"/>
    </contour>
  </outline>
</glyph>
<glyph name="madda-yezi" format="2">
  <unicode hex="10EAC"/>
  <anchor x="0" y="516" name="_top.madda"/>
  <outline>
    <contour>
      <point x="-222" y="582" type="line"/>
      <point x="-140" y="653" type="line"/>
      <point x="-168" y="637" type="line"/>
      <point x="-105" y="619"/>
      <point x="-41" y="609"/>
      <point x="73" y="609" type="curve" smooth="yes"/>
      <point x="114" y="609"/>
      <point x="152" y="612"/>
      <point x="200" y="619" type="curve"/>
      <point x="252" y="708" type="line"/>
      <point x="248" y="712" type="line"/>
      <point x="222" y="706"/>
      <point x="177" y="701"/>
      <point x="115" y="701" type="curve" smooth="yes"/>
      <point x="15" y="701"/>
      <point x="-62" y="712"/>
      <point x="-107" y="728" type="curve"/>
      <point x="-113" y="728" type="line"/>
      <point x="-243" y="605" type="line"/>
    </contour>
  </outline>
</glyph>
<glyph name="hyphen-yezi" format="2">
  <advance width="239"/>
  <unicode hex="10EAD"/>
  <outline>
    <contour>
      <point x="114" y="463" type="curve" smooth="yes"/>
      <point x="149" y="463"/>
      <point x="176" y="484"/>
      <point x="176" y="522" type="curve" smooth="yes"/>
      <point x="176" y="591"/>
      <point x="113" y="582"/>
      <point x="113" y="614" type="curve" smooth="yes"/>
      <point x="113" y="648"/>
      <point x="139" y="663"/>
      <point x="189" y="681" type="curve"/>
      <point x="189" y="726" type="line"/>
      <point x="77" y="696"/>
      <point x="35" y="631"/>
      <point x="35" y="558" type="curve" smooth="yes"/>
      <point x="35" y="499"/>
      <point x="66" y="463"/>
    </contour>
  </outline>
</glyph>
<glyph name="lamDot-yezi" format="2">
  <advance width="382"/>
  <unicode hex="10EB0"/>
  <outline>
    <contour>
      <point x="2" y="0" type="line"/>
      <point x="142" y="0" type="line" smooth="yes"/>
      <point x="280" y="0"/>
      <point x="324" y="88"/>
      <point x="324" y="215" type="curve" smooth="yes"/>
      <point x="324" y="370"/>
      <point x="321" y="575"/>
      <point x="299" y="770" type="curve"/>
      <point x="294" y="770" type="line"/>
      <point x="216" y="715" type="line"/>
      <point x="244" y="564"/>
      <point x="260" y="400"/>
      <point x="260" y="279" type="curve" smooth="yes"/>
      <point x="260" y="177"/>
      <point x="218" y="138"/>
      <point x="121" y="138" type="curve" smooth="yes"/>
      <point x="53" y="138" type="line"/>
      <point x="2" y="6" type="line"/>
    </contour>
    <contour>
      <point x="256" y="824" type="curve" smooth="yes"/>
      <point x="289" y="824"/>
      <point x="311" y="843"/>
      <point x="311" y="884" type="curve" smooth="yes"/>
      <point x="311" y="925"/>
      <point x="289" y="944"/>
      <point x="256" y="944" type="curve" smooth="yes"/>
      <point x="223" y="944"/>
      <point x="201" y="925"/>
      <point x="201" y="884" type="curve" smooth="yes"/>
      <point x="201" y="843"/>
      <point x="223" y="824"/>
    </contour>
  </outline>
</glyph>
<glyph name="yotCircum-yezi" format="2">
  <advance width="522"/>
  <unicode hex="10EB1"/>
  <anchor x="247" y="795" name="top"/>
  <outline>
    <contour>
      <point x="413" y="-293" type="curve"/>
      <point x="418" y="-293" type="line"/>
      <point x="496" y="-246" type="line"/>
      <point x="478" y="-142"/>
      <point x="468" y="-37"/>
      <point x="468" y="64" type="curve" smooth="yes"/>
      <point x="468" y="298" type="line" smooth="yes"/>
      <point x="468" y="380"/>
      <point x="438" y="463"/>
      <point x="266" y="463" type="curve" smooth="yes"/>
      <point x="98" y="463" type="line"/>
      <point x="44" y="327" type="line"/>
      <point x="44" y="321" type="line"/>
      <point x="56" y="264"/>
      <point x="64" y="214"/>
      <point x="64" y="160" type="curve" smooth="yes"/>
      <point x="64" y="114"/>
      <point x="60" y="65"/>
      <point x="50" y="6" type="curve"/>
      <point x="50" y="0" type="line"/>
      <point x="446" y="0" type="line"/>
      <point x="446" y="138" type="line"/>
      <point x="94" y="138" type="line"/>
      <point x="95" y="111" type="line"/>
      <point x="107" y="180"/>
      <point x="118" y="244"/>
      <point x="118" y="309" type="curve" smooth="yes"/>
      <point x="118" y="330"/>
      <point x="117" y="351"/>
      <point x="114" y="372" type="curve"/>
      <point x="67" y="325" type="line"/>
      <point x="295" y="325" type="line" smooth="yes"/>
      <point x="371" y="325"/>
      <point x="404" y="297"/>
      <point x="404" y="224" type="curve" smooth="yes"/>
      <point x="404" y="-84" type="line" smooth="yes"/>
      <point x="404" y="-154"/>
      <point x="407" y="-223"/>
    </contour>
    <contour>
      <point x="117" y="542" type="line"/>
      <point x="168" y="593"/>
      <point x="214" y="640"/>
      <point x="262" y="694" type="curve"/>
      <point x="228" y="682" type="line"/>
      <point x="262" y="638"/>
      <point x="309" y="587"/>
      <point x="354" y="542" type="curve"/>
      <point x="359" y="542" type="line"/>
      <point x="438" y="611" type="line"/>
      <point x="388" y="659"/>
      <point x="332" y="715"/>
      <point x="288" y="770" type="curve"/>
      <point x="284" y="770" type="line"/>
      <point x="224" y="699"/>
      <point x="156" y="626"/>
      <point x="95" y="563" type="curve"/>
    </contour>
  </outline>
</glyph>
<glyph name=".notdef" format="2">
  <advance width="582"/>
  <outline>
    <contour>
      <point x="85" y="0" type="line"/>
      <point x="496" y="0" type="line"/>
      <point x="496" y="714" type="line"/>
      <point x="85" y="714" type="line"/>
    </contour>
    <contour>
      <point x="136" y="51" type="line"/>
      <point x="136" y="663" type="line"/>
      <point x="445" y="663" type="line"/>
      <point x="445" y="51" type="line"/>
    </contour>
  </outline>
</glyph>
